<mxfile host="app.diagrams.net" agent="Mozilla/5.0 (Macintosh; Intel Mac OS X 10_15_7) AppleWebKit/537.36 (KHTML, like Gecko) Chrome/134.0.0.0 Safari/537.36" version="26.1.3" pages="3">
  <diagram name="第 1 页" id="r3Nvnm48XD6PJ93AmXQo">
    <mxGraphModel dx="1420" dy="877" grid="1" gridSize="10" guides="1" tooltips="1" connect="1" arrows="1" fold="1" page="1" pageScale="1" pageWidth="827" pageHeight="1169" math="0" shadow="0">
      <root>
        <mxCell id="0" />
        <mxCell id="1" parent="0" />
        <mxCell id="sa3rA5byNG9hc0om_ih--5" value="" style="edgeStyle=orthogonalEdgeStyle;rounded=0;sketch=1;hachureGap=4;jiggle=2;curveFitting=1;orthogonalLoop=1;jettySize=auto;html=1;fontFamily=Architects Daughter;fontSource=https%3A%2F%2Ffonts.googleapis.com%2Fcss%3Ffamily%3DArchitects%2BDaughter;fontSize=16;" edge="1" parent="1" source="sa3rA5byNG9hc0om_ih--3" target="sa3rA5byNG9hc0om_ih--4">
          <mxGeometry relative="1" as="geometry" />
        </mxCell>
        <mxCell id="sa3rA5byNG9hc0om_ih--3" value="查找用户订单记录" style="rounded=0;whiteSpace=wrap;html=1;sketch=1;hachureGap=4;jiggle=2;curveFitting=1;fontFamily=Architects Daughter;fontSource=https%3A%2F%2Ffonts.googleapis.com%2Fcss%3Ffamily%3DArchitects%2BDaughter;fontSize=16;" vertex="1" parent="1">
          <mxGeometry x="80" y="120" width="120" height="60" as="geometry" />
        </mxCell>
        <mxCell id="sa3rA5byNG9hc0om_ih--7" value="" style="edgeStyle=orthogonalEdgeStyle;rounded=0;sketch=1;hachureGap=4;jiggle=2;curveFitting=1;orthogonalLoop=1;jettySize=auto;html=1;fontFamily=Architects Daughter;fontSource=https%3A%2F%2Ffonts.googleapis.com%2Fcss%3Ffamily%3DArchitects%2BDaughter;fontSize=16;" edge="1" parent="1" source="sa3rA5byNG9hc0om_ih--4" target="sa3rA5byNG9hc0om_ih--6">
          <mxGeometry relative="1" as="geometry" />
        </mxCell>
        <mxCell id="sa3rA5byNG9hc0om_ih--12" style="edgeStyle=orthogonalEdgeStyle;rounded=0;sketch=1;hachureGap=4;jiggle=2;curveFitting=1;orthogonalLoop=1;jettySize=auto;html=1;exitX=0.5;exitY=1;exitDx=0;exitDy=0;entryX=0.5;entryY=0;entryDx=0;entryDy=0;fontFamily=Architects Daughter;fontSource=https%3A%2F%2Ffonts.googleapis.com%2Fcss%3Ffamily%3DArchitects%2BDaughter;fontSize=16;" edge="1" parent="1" source="sa3rA5byNG9hc0om_ih--4" target="sa3rA5byNG9hc0om_ih--10">
          <mxGeometry relative="1" as="geometry" />
        </mxCell>
        <mxCell id="sa3rA5byNG9hc0om_ih--13" style="edgeStyle=orthogonalEdgeStyle;rounded=0;sketch=1;hachureGap=4;jiggle=2;curveFitting=1;orthogonalLoop=1;jettySize=auto;html=1;exitX=0.5;exitY=1;exitDx=0;exitDy=0;entryX=0.5;entryY=0;entryDx=0;entryDy=0;fontFamily=Architects Daughter;fontSource=https%3A%2F%2Ffonts.googleapis.com%2Fcss%3Ffamily%3DArchitects%2BDaughter;fontSize=16;" edge="1" parent="1" source="sa3rA5byNG9hc0om_ih--4" target="sa3rA5byNG9hc0om_ih--11">
          <mxGeometry relative="1" as="geometry" />
        </mxCell>
        <mxCell id="sa3rA5byNG9hc0om_ih--4" value="获取用户&lt;div&gt;Bill Account&lt;/div&gt;" style="rounded=0;whiteSpace=wrap;html=1;sketch=1;hachureGap=4;jiggle=2;curveFitting=1;fontFamily=Architects Daughter;fontSource=https%3A%2F%2Ffonts.googleapis.com%2Fcss%3Ffamily%3DArchitects%2BDaughter;fontSize=16;" vertex="1" parent="1">
          <mxGeometry x="80" y="260" width="120" height="60" as="geometry" />
        </mxCell>
        <mxCell id="sa3rA5byNG9hc0om_ih--9" value="" style="edgeStyle=orthogonalEdgeStyle;rounded=0;sketch=1;hachureGap=4;jiggle=2;curveFitting=1;orthogonalLoop=1;jettySize=auto;html=1;fontFamily=Architects Daughter;fontSource=https%3A%2F%2Ffonts.googleapis.com%2Fcss%3Ffamily%3DArchitects%2BDaughter;fontSize=16;" edge="1" parent="1" source="sa3rA5byNG9hc0om_ih--6" target="sa3rA5byNG9hc0om_ih--8">
          <mxGeometry relative="1" as="geometry" />
        </mxCell>
        <mxCell id="sa3rA5byNG9hc0om_ih--6" value="请求供应商&lt;div&gt;获取 bill amount&lt;/div&gt;" style="whiteSpace=wrap;html=1;fontFamily=Architects Daughter;rounded=0;sketch=1;hachureGap=4;jiggle=2;curveFitting=1;fontSource=https%3A%2F%2Ffonts.googleapis.com%2Fcss%3Ffamily%3DArchitects%2BDaughter;fontSize=16;" vertex="1" parent="1">
          <mxGeometry x="80" y="400" width="120" height="60" as="geometry" />
        </mxCell>
        <mxCell id="sa3rA5byNG9hc0om_ih--17" value="" style="edgeStyle=orthogonalEdgeStyle;rounded=0;sketch=1;hachureGap=4;jiggle=2;curveFitting=1;orthogonalLoop=1;jettySize=auto;html=1;fontFamily=Architects Daughter;fontSource=https%3A%2F%2Ffonts.googleapis.com%2Fcss%3Ffamily%3DArchitects%2BDaughter;fontSize=16;" edge="1" parent="1" source="sa3rA5byNG9hc0om_ih--8" target="sa3rA5byNG9hc0om_ih--16">
          <mxGeometry relative="1" as="geometry" />
        </mxCell>
        <mxCell id="sa3rA5byNG9hc0om_ih--8" value="接口返回数据" style="whiteSpace=wrap;html=1;fontFamily=Architects Daughter;rounded=0;sketch=1;hachureGap=4;jiggle=2;curveFitting=1;fontSource=https%3A%2F%2Ffonts.googleapis.com%2Fcss%3Ffamily%3DArchitects%2BDaughter;fontSize=16;" vertex="1" parent="1">
          <mxGeometry x="80" y="540" width="120" height="60" as="geometry" />
        </mxCell>
        <mxCell id="sa3rA5byNG9hc0om_ih--14" style="edgeStyle=orthogonalEdgeStyle;rounded=0;sketch=1;hachureGap=4;jiggle=2;curveFitting=1;orthogonalLoop=1;jettySize=auto;html=1;exitX=0.5;exitY=1;exitDx=0;exitDy=0;entryX=0.5;entryY=0;entryDx=0;entryDy=0;fontFamily=Architects Daughter;fontSource=https%3A%2F%2Ffonts.googleapis.com%2Fcss%3Ffamily%3DArchitects%2BDaughter;fontSize=16;" edge="1" parent="1" source="sa3rA5byNG9hc0om_ih--10" target="sa3rA5byNG9hc0om_ih--8">
          <mxGeometry relative="1" as="geometry" />
        </mxCell>
        <mxCell id="sa3rA5byNG9hc0om_ih--10" value="请求供应商&lt;div&gt;获取 bill amount&lt;/div&gt;" style="whiteSpace=wrap;html=1;fontFamily=Architects Daughter;rounded=0;sketch=1;hachureGap=4;jiggle=2;curveFitting=1;fontSource=https%3A%2F%2Ffonts.googleapis.com%2Fcss%3Ffamily%3DArchitects%2BDaughter;fontSize=16;" vertex="1" parent="1">
          <mxGeometry x="230" y="400" width="120" height="60" as="geometry" />
        </mxCell>
        <mxCell id="sa3rA5byNG9hc0om_ih--15" style="edgeStyle=orthogonalEdgeStyle;rounded=0;sketch=1;hachureGap=4;jiggle=2;curveFitting=1;orthogonalLoop=1;jettySize=auto;html=1;exitX=0.5;exitY=1;exitDx=0;exitDy=0;fontFamily=Architects Daughter;fontSource=https%3A%2F%2Ffonts.googleapis.com%2Fcss%3Ffamily%3DArchitects%2BDaughter;fontSize=16;" edge="1" parent="1" source="sa3rA5byNG9hc0om_ih--11">
          <mxGeometry relative="1" as="geometry">
            <mxPoint x="140" y="540" as="targetPoint" />
          </mxGeometry>
        </mxCell>
        <mxCell id="sa3rA5byNG9hc0om_ih--11" value="请求供应商&lt;div&gt;获取 bill amount&lt;/div&gt;" style="whiteSpace=wrap;html=1;fontFamily=Architects Daughter;rounded=0;sketch=1;hachureGap=4;jiggle=2;curveFitting=1;fontSource=https%3A%2F%2Ffonts.googleapis.com%2Fcss%3Ffamily%3DArchitects%2BDaughter;fontSize=16;" vertex="1" parent="1">
          <mxGeometry x="380" y="400" width="120" height="60" as="geometry" />
        </mxCell>
        <mxCell id="sa3rA5byNG9hc0om_ih--16" value="前端展示 Bills" style="whiteSpace=wrap;html=1;fontFamily=Architects Daughter;rounded=0;sketch=1;hachureGap=4;jiggle=2;curveFitting=1;fontSource=https%3A%2F%2Ffonts.googleapis.com%2Fcss%3Ffamily%3DArchitects%2BDaughter;fontSize=16;" vertex="1" parent="1">
          <mxGeometry x="80" y="680" width="120" height="60" as="geometry" />
        </mxCell>
      </root>
    </mxGraphModel>
  </diagram>
  <diagram id="eUW-dzoyTNrj9XHXPQee" name="第 2 页">
    <mxGraphModel dx="1420" dy="877" grid="1" gridSize="10" guides="1" tooltips="1" connect="1" arrows="1" fold="1" page="1" pageScale="1" pageWidth="827" pageHeight="1169" math="0" shadow="0">
      <root>
        <mxCell id="0" />
        <mxCell id="1" parent="0" />
        <mxCell id="7J-_MhogxjIcyzEhnlUY-1" value="" style="edgeStyle=orthogonalEdgeStyle;rounded=0;sketch=1;hachureGap=4;jiggle=2;curveFitting=1;orthogonalLoop=1;jettySize=auto;html=1;fontFamily=Architects Daughter;fontSource=https%3A%2F%2Ffonts.googleapis.com%2Fcss%3Ffamily%3DArchitects%2BDaughter;fontSize=16;" edge="1" parent="1" source="7J-_MhogxjIcyzEhnlUY-2" target="7J-_MhogxjIcyzEhnlUY-6">
          <mxGeometry relative="1" as="geometry" />
        </mxCell>
        <mxCell id="7J-_MhogxjIcyzEhnlUY-2" value="查找用户订单记录" style="rounded=0;whiteSpace=wrap;html=1;sketch=1;hachureGap=4;jiggle=2;curveFitting=1;fontFamily=Architects Daughter;fontSource=https%3A%2F%2Ffonts.googleapis.com%2Fcss%3Ffamily%3DArchitects%2BDaughter;fontSize=16;" vertex="1" parent="1">
          <mxGeometry x="80" y="120" width="120" height="60" as="geometry" />
        </mxCell>
        <mxCell id="V3-beZx6WdXlUbTwAj2y-2" value="" style="edgeStyle=orthogonalEdgeStyle;rounded=0;sketch=1;hachureGap=4;jiggle=2;curveFitting=1;orthogonalLoop=1;jettySize=auto;html=1;fontFamily=Architects Daughter;fontSource=https%3A%2F%2Ffonts.googleapis.com%2Fcss%3Ffamily%3DArchitects%2BDaughter;" edge="1" parent="1" source="7J-_MhogxjIcyzEhnlUY-6" target="V3-beZx6WdXlUbTwAj2y-1">
          <mxGeometry relative="1" as="geometry" />
        </mxCell>
        <mxCell id="V3-beZx6WdXlUbTwAj2y-4" style="edgeStyle=orthogonalEdgeStyle;rounded=0;sketch=1;hachureGap=4;jiggle=2;curveFitting=1;orthogonalLoop=1;jettySize=auto;html=1;exitX=1;exitY=0.5;exitDx=0;exitDy=0;entryX=0.5;entryY=0;entryDx=0;entryDy=0;fontFamily=Architects Daughter;fontSource=https%3A%2F%2Ffonts.googleapis.com%2Fcss%3Ffamily%3DArchitects%2BDaughter;" edge="1" parent="1" source="7J-_MhogxjIcyzEhnlUY-6" target="7J-_MhogxjIcyzEhnlUY-8">
          <mxGeometry relative="1" as="geometry" />
        </mxCell>
        <mxCell id="V3-beZx6WdXlUbTwAj2y-5" style="edgeStyle=orthogonalEdgeStyle;rounded=0;sketch=1;hachureGap=4;jiggle=2;curveFitting=1;orthogonalLoop=1;jettySize=auto;html=1;exitX=1;exitY=0.5;exitDx=0;exitDy=0;entryX=0.5;entryY=0;entryDx=0;entryDy=0;fontFamily=Architects Daughter;fontSource=https%3A%2F%2Ffonts.googleapis.com%2Fcss%3Ffamily%3DArchitects%2BDaughter;" edge="1" parent="1" source="7J-_MhogxjIcyzEhnlUY-6" target="7J-_MhogxjIcyzEhnlUY-12">
          <mxGeometry relative="1" as="geometry" />
        </mxCell>
        <mxCell id="V3-beZx6WdXlUbTwAj2y-6" style="edgeStyle=orthogonalEdgeStyle;rounded=0;sketch=1;hachureGap=4;jiggle=2;curveFitting=1;orthogonalLoop=1;jettySize=auto;html=1;exitX=1;exitY=0.5;exitDx=0;exitDy=0;entryX=0.5;entryY=0;entryDx=0;entryDy=0;fontFamily=Architects Daughter;fontSource=https%3A%2F%2Ffonts.googleapis.com%2Fcss%3Ffamily%3DArchitects%2BDaughter;" edge="1" parent="1" source="7J-_MhogxjIcyzEhnlUY-6" target="7J-_MhogxjIcyzEhnlUY-14">
          <mxGeometry relative="1" as="geometry" />
        </mxCell>
        <mxCell id="7J-_MhogxjIcyzEhnlUY-6" value="获取用户&lt;div&gt;Bill Account&lt;/div&gt;" style="rounded=0;whiteSpace=wrap;html=1;sketch=1;hachureGap=4;jiggle=2;curveFitting=1;fontFamily=Architects Daughter;fontSource=https%3A%2F%2Ffonts.googleapis.com%2Fcss%3Ffamily%3DArchitects%2BDaughter;fontSize=16;" vertex="1" parent="1">
          <mxGeometry x="80" y="260" width="120" height="60" as="geometry" />
        </mxCell>
        <mxCell id="V3-beZx6WdXlUbTwAj2y-7" style="edgeStyle=orthogonalEdgeStyle;rounded=0;sketch=1;hachureGap=4;jiggle=2;curveFitting=1;orthogonalLoop=1;jettySize=auto;html=1;exitX=0.5;exitY=1;exitDx=0;exitDy=0;entryX=0.5;entryY=0;entryDx=0;entryDy=0;fontFamily=Architects Daughter;fontSource=https%3A%2F%2Ffonts.googleapis.com%2Fcss%3Ffamily%3DArchitects%2BDaughter;" edge="1" parent="1" source="7J-_MhogxjIcyzEhnlUY-8" target="7J-_MhogxjIcyzEhnlUY-10">
          <mxGeometry relative="1" as="geometry" />
        </mxCell>
        <mxCell id="7J-_MhogxjIcyzEhnlUY-8" value="请求供应商&lt;div&gt;获取 bill amount&lt;/div&gt;" style="whiteSpace=wrap;html=1;fontFamily=Architects Daughter;rounded=0;sketch=1;hachureGap=4;jiggle=2;curveFitting=1;fontSource=https%3A%2F%2Ffonts.googleapis.com%2Fcss%3Ffamily%3DArchitects%2BDaughter;fontSize=16;" vertex="1" parent="1">
          <mxGeometry x="310" y="390" width="120" height="60" as="geometry" />
        </mxCell>
        <mxCell id="V3-beZx6WdXlUbTwAj2y-12" style="edgeStyle=orthogonalEdgeStyle;rounded=0;sketch=1;hachureGap=4;jiggle=2;curveFitting=1;orthogonalLoop=1;jettySize=auto;html=1;exitX=0.5;exitY=1;exitDx=0;exitDy=0;entryX=0.5;entryY=0;entryDx=0;entryDy=0;fontFamily=Architects Daughter;fontSource=https%3A%2F%2Ffonts.googleapis.com%2Fcss%3Ffamily%3DArchitects%2BDaughter;" edge="1" parent="1" source="7J-_MhogxjIcyzEhnlUY-10" target="V3-beZx6WdXlUbTwAj2y-10">
          <mxGeometry relative="1" as="geometry" />
        </mxCell>
        <mxCell id="7J-_MhogxjIcyzEhnlUY-10" value="返回金额&lt;div&gt;amount 接口&lt;/div&gt;" style="whiteSpace=wrap;html=1;fontFamily=Architects Daughter;rounded=0;sketch=1;hachureGap=4;jiggle=2;curveFitting=1;fontSource=https%3A%2F%2Ffonts.googleapis.com%2Fcss%3Ffamily%3DArchitects%2BDaughter;fontSize=16;" vertex="1" parent="1">
          <mxGeometry x="310" y="520" width="120" height="60" as="geometry" />
        </mxCell>
        <mxCell id="V3-beZx6WdXlUbTwAj2y-8" style="edgeStyle=orthogonalEdgeStyle;rounded=0;sketch=1;hachureGap=4;jiggle=2;curveFitting=1;orthogonalLoop=1;jettySize=auto;html=1;exitX=0.5;exitY=1;exitDx=0;exitDy=0;entryX=0.5;entryY=0;entryDx=0;entryDy=0;fontFamily=Architects Daughter;fontSource=https%3A%2F%2Ffonts.googleapis.com%2Fcss%3Ffamily%3DArchitects%2BDaughter;" edge="1" parent="1" source="7J-_MhogxjIcyzEhnlUY-12" target="7J-_MhogxjIcyzEhnlUY-10">
          <mxGeometry relative="1" as="geometry" />
        </mxCell>
        <mxCell id="7J-_MhogxjIcyzEhnlUY-12" value="请求供应商&lt;div&gt;获取 bill amount&lt;/div&gt;" style="whiteSpace=wrap;html=1;fontFamily=Architects Daughter;rounded=0;sketch=1;hachureGap=4;jiggle=2;curveFitting=1;fontSource=https%3A%2F%2Ffonts.googleapis.com%2Fcss%3Ffamily%3DArchitects%2BDaughter;fontSize=16;" vertex="1" parent="1">
          <mxGeometry x="460" y="390" width="120" height="60" as="geometry" />
        </mxCell>
        <mxCell id="V3-beZx6WdXlUbTwAj2y-9" style="edgeStyle=orthogonalEdgeStyle;rounded=0;sketch=1;hachureGap=4;jiggle=2;curveFitting=1;orthogonalLoop=1;jettySize=auto;html=1;exitX=0.5;exitY=1;exitDx=0;exitDy=0;entryX=0.5;entryY=0;entryDx=0;entryDy=0;fontFamily=Architects Daughter;fontSource=https%3A%2F%2Ffonts.googleapis.com%2Fcss%3Ffamily%3DArchitects%2BDaughter;" edge="1" parent="1" source="7J-_MhogxjIcyzEhnlUY-14" target="7J-_MhogxjIcyzEhnlUY-10">
          <mxGeometry relative="1" as="geometry" />
        </mxCell>
        <mxCell id="7J-_MhogxjIcyzEhnlUY-14" value="请求供应商&lt;div&gt;获取 bill amount&lt;/div&gt;" style="whiteSpace=wrap;html=1;fontFamily=Architects Daughter;rounded=0;sketch=1;hachureGap=4;jiggle=2;curveFitting=1;fontSource=https%3A%2F%2Ffonts.googleapis.com%2Fcss%3Ffamily%3DArchitects%2BDaughter;fontSize=16;" vertex="1" parent="1">
          <mxGeometry x="610" y="390" width="120" height="60" as="geometry" />
        </mxCell>
        <mxCell id="V3-beZx6WdXlUbTwAj2y-11" value="" style="edgeStyle=orthogonalEdgeStyle;rounded=0;sketch=1;hachureGap=4;jiggle=2;curveFitting=1;orthogonalLoop=1;jettySize=auto;html=1;fontFamily=Architects Daughter;fontSource=https%3A%2F%2Ffonts.googleapis.com%2Fcss%3Ffamily%3DArchitects%2BDaughter;" edge="1" parent="1" source="7J-_MhogxjIcyzEhnlUY-15" target="V3-beZx6WdXlUbTwAj2y-10">
          <mxGeometry relative="1" as="geometry" />
        </mxCell>
        <mxCell id="7J-_MhogxjIcyzEhnlUY-15" value="前端展示 Bills" style="whiteSpace=wrap;html=1;fontFamily=Architects Daughter;rounded=0;sketch=1;hachureGap=4;jiggle=2;curveFitting=1;fontSource=https%3A%2F%2Ffonts.googleapis.com%2Fcss%3Ffamily%3DArchitects%2BDaughter;fontSize=16;" vertex="1" parent="1">
          <mxGeometry x="80" y="525" width="120" height="60" as="geometry" />
        </mxCell>
        <mxCell id="V3-beZx6WdXlUbTwAj2y-3" style="edgeStyle=orthogonalEdgeStyle;rounded=0;sketch=1;hachureGap=4;jiggle=2;curveFitting=1;orthogonalLoop=1;jettySize=auto;html=1;exitX=0.5;exitY=1;exitDx=0;exitDy=0;entryX=0.5;entryY=0;entryDx=0;entryDy=0;fontFamily=Architects Daughter;fontSource=https%3A%2F%2Ffonts.googleapis.com%2Fcss%3Ffamily%3DArchitects%2BDaughter;" edge="1" parent="1" source="V3-beZx6WdXlUbTwAj2y-1" target="7J-_MhogxjIcyzEhnlUY-15">
          <mxGeometry relative="1" as="geometry" />
        </mxCell>
        <mxCell id="V3-beZx6WdXlUbTwAj2y-1" value="返回用&amp;nbsp;&lt;span style=&quot;background-color: transparent; color: light-dark(rgb(0, 0, 0), rgb(255, 255, 255));&quot;&gt;account info 接口&lt;/span&gt;" style="rounded=0;whiteSpace=wrap;html=1;sketch=1;hachureGap=4;jiggle=2;curveFitting=1;fontFamily=Architects Daughter;fontSource=https%3A%2F%2Ffonts.googleapis.com%2Fcss%3Ffamily%3DArchitects%2BDaughter;fontSize=16;" vertex="1" parent="1">
          <mxGeometry x="80" y="390" width="120" height="60" as="geometry" />
        </mxCell>
        <mxCell id="V3-beZx6WdXlUbTwAj2y-10" value="前端展示/刷新金额信息" style="whiteSpace=wrap;html=1;fontFamily=Architects Daughter;rounded=0;sketch=1;hachureGap=4;jiggle=2;curveFitting=1;fontSource=https%3A%2F%2Ffonts.googleapis.com%2Fcss%3Ffamily%3DArchitects%2BDaughter;fontSize=16;" vertex="1" parent="1">
          <mxGeometry x="80" y="665" width="120" height="60" as="geometry" />
        </mxCell>
      </root>
    </mxGraphModel>
  </diagram>
  <diagram id="lzaDDTiGIkeOSbGjgCRM" name="第 3 页">
    <mxGraphModel dx="1420" dy="877" grid="1" gridSize="10" guides="1" tooltips="1" connect="1" arrows="1" fold="1" page="1" pageScale="1" pageWidth="827" pageHeight="1169" math="0" shadow="0">
      <root>
        <mxCell id="0" />
        <mxCell id="1" parent="0" />
        <mxCell id="SATKyw_8-wPn9Zzh8-83-1" value="" style="strokeWidth=1;shadow=0;dashed=0;align=center;html=1;shape=mxgraph.mockup.containers.browserWindow;rSize=0;strokeColor=#666666;strokeColor2=#008cff;strokeColor3=#c4c4c4;mainText=,;recursiveResize=0;sketch=1;hachureGap=4;jiggle=2;curveFitting=1;fontFamily=手札体-简;" vertex="1" parent="1">
          <mxGeometry x="80" y="110" width="1020" height="420" as="geometry" />
        </mxCell>
        <mxCell id="SATKyw_8-wPn9Zzh8-83-2" value="Page 1" style="strokeWidth=1;shadow=0;dashed=0;align=center;html=1;shape=mxgraph.mockup.containers.anchor;fontSize=17;fontColor=#666666;align=left;whiteSpace=wrap;sketch=1;hachureGap=4;jiggle=2;curveFitting=1;fontFamily=手札体-简;" vertex="1" parent="SATKyw_8-wPn9Zzh8-83-1">
          <mxGeometry x="60" y="12" width="110" height="26" as="geometry" />
        </mxCell>
        <mxCell id="SATKyw_8-wPn9Zzh8-83-3" value="dp-admin/reminder" style="strokeWidth=1;shadow=0;dashed=0;align=center;html=1;shape=mxgraph.mockup.containers.anchor;rSize=0;fontSize=17;fontColor=#666666;align=left;sketch=1;hachureGap=4;jiggle=2;curveFitting=1;fontFamily=手札体-简;" vertex="1" parent="SATKyw_8-wPn9Zzh8-83-1">
          <mxGeometry x="130" y="60" width="250" height="26" as="geometry" />
        </mxCell>
        <mxCell id="SATKyw_8-wPn9Zzh8-83-4" value="Search" style="strokeWidth=1;shadow=0;dashed=0;align=center;html=1;shape=mxgraph.mockup.forms.searchBox;strokeColor=#999999;mainText=;strokeColor2=#008cff;fontColor=#666666;fontSize=17;align=left;spacingLeft=3;whiteSpace=wrap;sketch=1;hachureGap=4;jiggle=2;curveFitting=1;fontFamily=手札体-简;" vertex="1" parent="SATKyw_8-wPn9Zzh8-83-1">
          <mxGeometry x="124" y="150" width="150" height="30" as="geometry" />
        </mxCell>
        <mxCell id="SATKyw_8-wPn9Zzh8-83-5" value="Category:" style="text;html=1;align=center;verticalAlign=middle;whiteSpace=wrap;rounded=0;fontFamily=手札体-简;fontSize=16;" vertex="1" parent="SATKyw_8-wPn9Zzh8-83-1">
          <mxGeometry x="40" y="150" width="60" height="30" as="geometry" />
        </mxCell>
        <mxCell id="SATKyw_8-wPn9Zzh8-83-6" value="Search" style="strokeWidth=1;shadow=0;dashed=0;align=center;html=1;shape=mxgraph.mockup.forms.searchBox;strokeColor=#999999;mainText=;strokeColor2=#008cff;fontColor=#666666;fontSize=17;align=left;spacingLeft=3;whiteSpace=wrap;sketch=1;hachureGap=4;jiggle=2;curveFitting=1;fontFamily=手札体-简;" vertex="1" parent="SATKyw_8-wPn9Zzh8-83-1">
          <mxGeometry x="384" y="148.5" width="150" height="30" as="geometry" />
        </mxCell>
        <mxCell id="SATKyw_8-wPn9Zzh8-83-7" value="Carrier:" style="text;html=1;align=center;verticalAlign=middle;whiteSpace=wrap;rounded=0;fontFamily=手札体-简;fontSize=16;" vertex="1" parent="SATKyw_8-wPn9Zzh8-83-1">
          <mxGeometry x="300" y="148.5" width="60" height="30" as="geometry" />
        </mxCell>
        <mxCell id="SATKyw_8-wPn9Zzh8-83-8" value="&lt;font style=&quot;font-size: 14px;&quot;&gt;Add&lt;/font&gt;" style="rounded=1;html=1;shadow=0;dashed=0;whiteSpace=wrap;fontSize=10;fillColor=#E6E6E6;align=center;strokeColor=#E6E6E6;fontColor=#333333;sketch=1;hachureGap=4;jiggle=2;curveFitting=1;fontFamily=手札体-简;arcSize=50;" vertex="1" parent="SATKyw_8-wPn9Zzh8-83-1">
          <mxGeometry x="630" y="148.5" width="90" height="33" as="geometry" />
        </mxCell>
        <mxCell id="SATKyw_8-wPn9Zzh8-83-9" value="&lt;span style=&quot;font-size: 14px;&quot;&gt;Mass Add&lt;/span&gt;" style="rounded=1;html=1;shadow=0;dashed=0;whiteSpace=wrap;fontSize=10;fillColor=#E6E6E6;align=center;strokeColor=#E6E6E6;fontColor=#333333;sketch=1;hachureGap=4;jiggle=2;curveFitting=1;fontFamily=手札体-简;arcSize=50;" vertex="1" parent="SATKyw_8-wPn9Zzh8-83-1">
          <mxGeometry x="727" y="150" width="90" height="33" as="geometry" />
        </mxCell>
        <mxCell id="SATKyw_8-wPn9Zzh8-83-10" value="&lt;font style=&quot;font-size: 14px;&quot;&gt;Mass Edit&lt;/font&gt;" style="rounded=1;html=1;shadow=0;dashed=0;whiteSpace=wrap;fontSize=10;fillColor=#E6E6E6;align=center;strokeColor=#E6E6E6;fontColor=#333333;sketch=1;hachureGap=4;jiggle=2;curveFitting=1;fontFamily=手札体-简;arcSize=50;" vertex="1" parent="SATKyw_8-wPn9Zzh8-83-1">
          <mxGeometry x="820" y="148.5" width="90" height="33" as="geometry" />
        </mxCell>
        <mxCell id="SATKyw_8-wPn9Zzh8-83-11" value="Category" style="swimlane;fontStyle=0;childLayout=stackLayout;horizontal=1;startSize=26;fillColor=none;horizontalStack=0;resizeParent=1;resizeParentMax=0;resizeLast=0;collapsible=1;marginBottom=0;hachureGap=4;fontFamily=手札体-简;html=1;flipH=0;strokeColor=default;swimlaneLine=0;shadow=1;fontSize=14;" vertex="1" parent="SATKyw_8-wPn9Zzh8-83-1">
          <mxGeometry x="40" y="240" width="130" height="104" as="geometry" />
        </mxCell>
        <mxCell id="SATKyw_8-wPn9Zzh8-83-12" value="Item 1" style="text;strokeColor=default;fillColor=none;align=left;verticalAlign=top;spacingLeft=4;spacingRight=4;overflow=hidden;rotatable=0;points=[[0,0.5],[1,0.5]];portConstraint=eastwest;whiteSpace=wrap;fontFamily=手札体-简;html=1;swimlaneLine=0;shadow=1;fontSize=14;" vertex="1" parent="SATKyw_8-wPn9Zzh8-83-11">
          <mxGeometry y="26" width="130" height="26" as="geometry" />
        </mxCell>
        <mxCell id="SATKyw_8-wPn9Zzh8-83-13" value="Item 2" style="text;strokeColor=default;fillColor=none;align=left;verticalAlign=top;spacingLeft=4;spacingRight=4;overflow=hidden;rotatable=0;points=[[0,0.5],[1,0.5]];portConstraint=eastwest;whiteSpace=wrap;fontFamily=手札体-简;html=1;swimlaneLine=0;shadow=1;fontSize=14;" vertex="1" parent="SATKyw_8-wPn9Zzh8-83-11">
          <mxGeometry y="52" width="130" height="26" as="geometry" />
        </mxCell>
        <mxCell id="SATKyw_8-wPn9Zzh8-83-14" value="Item 3" style="text;strokeColor=default;fillColor=none;align=left;verticalAlign=top;spacingLeft=4;spacingRight=4;overflow=hidden;rotatable=0;points=[[0,0.5],[1,0.5]];portConstraint=eastwest;whiteSpace=wrap;fontFamily=手札体-简;html=1;swimlaneLine=0;shadow=1;fontSize=14;" vertex="1" parent="SATKyw_8-wPn9Zzh8-83-11">
          <mxGeometry y="78" width="130" height="26" as="geometry" />
        </mxCell>
        <mxCell id="SATKyw_8-wPn9Zzh8-83-15" value="Carrier" style="swimlane;fontStyle=0;childLayout=stackLayout;horizontal=1;startSize=26;fillColor=none;horizontalStack=0;resizeParent=1;resizeParentMax=0;resizeLast=0;collapsible=1;marginBottom=0;hachureGap=4;fontFamily=手札体-简;html=1;flipH=0;strokeColor=default;swimlaneLine=0;shadow=1;fontSize=14;" vertex="1" parent="SATKyw_8-wPn9Zzh8-83-1">
          <mxGeometry x="170" y="240" width="130" height="104" as="geometry" />
        </mxCell>
        <mxCell id="SATKyw_8-wPn9Zzh8-83-16" value="Item 1" style="text;strokeColor=default;fillColor=none;align=left;verticalAlign=top;spacingLeft=4;spacingRight=4;overflow=hidden;rotatable=0;points=[[0,0.5],[1,0.5]];portConstraint=eastwest;whiteSpace=wrap;fontFamily=手札体-简;html=1;swimlaneLine=0;shadow=1;fontSize=14;" vertex="1" parent="SATKyw_8-wPn9Zzh8-83-15">
          <mxGeometry y="26" width="130" height="26" as="geometry" />
        </mxCell>
        <mxCell id="SATKyw_8-wPn9Zzh8-83-17" value="Item 2" style="text;strokeColor=default;fillColor=none;align=left;verticalAlign=top;spacingLeft=4;spacingRight=4;overflow=hidden;rotatable=0;points=[[0,0.5],[1,0.5]];portConstraint=eastwest;whiteSpace=wrap;fontFamily=手札体-简;html=1;swimlaneLine=0;shadow=1;fontSize=14;" vertex="1" parent="SATKyw_8-wPn9Zzh8-83-15">
          <mxGeometry y="52" width="130" height="26" as="geometry" />
        </mxCell>
        <mxCell id="SATKyw_8-wPn9Zzh8-83-18" value="Item 3" style="text;strokeColor=default;fillColor=none;align=left;verticalAlign=top;spacingLeft=4;spacingRight=4;overflow=hidden;rotatable=0;points=[[0,0.5],[1,0.5]];portConstraint=eastwest;whiteSpace=wrap;fontFamily=手札体-简;html=1;swimlaneLine=0;shadow=1;fontSize=14;" vertex="1" parent="SATKyw_8-wPn9Zzh8-83-15">
          <mxGeometry y="78" width="130" height="26" as="geometry" />
        </mxCell>
        <mxCell id="SATKyw_8-wPn9Zzh8-83-19" value="Has Reminder" style="swimlane;fontStyle=0;childLayout=stackLayout;horizontal=1;startSize=26;fillColor=none;horizontalStack=0;resizeParent=1;resizeParentMax=0;resizeLast=0;collapsible=1;marginBottom=0;hachureGap=4;fontFamily=手札体-简;html=1;flipH=0;strokeColor=default;swimlaneLine=0;shadow=1;fontSize=14;" vertex="1" parent="SATKyw_8-wPn9Zzh8-83-1">
          <mxGeometry x="300" y="240" width="130" height="104" as="geometry" />
        </mxCell>
        <mxCell id="SATKyw_8-wPn9Zzh8-83-20" value="Has" style="text;strokeColor=default;fillColor=none;align=left;verticalAlign=top;spacingLeft=4;spacingRight=4;overflow=hidden;rotatable=0;points=[[0,0.5],[1,0.5]];portConstraint=eastwest;whiteSpace=wrap;fontFamily=手札体-简;html=1;swimlaneLine=0;shadow=1;fontSize=14;" vertex="1" parent="SATKyw_8-wPn9Zzh8-83-19">
          <mxGeometry y="26" width="130" height="26" as="geometry" />
        </mxCell>
        <mxCell id="SATKyw_8-wPn9Zzh8-83-21" value="None" style="text;strokeColor=default;fillColor=none;align=left;verticalAlign=top;spacingLeft=4;spacingRight=4;overflow=hidden;rotatable=0;points=[[0,0.5],[1,0.5]];portConstraint=eastwest;whiteSpace=wrap;fontFamily=手札体-简;html=1;swimlaneLine=0;shadow=1;fontSize=14;" vertex="1" parent="SATKyw_8-wPn9Zzh8-83-19">
          <mxGeometry y="52" width="130" height="26" as="geometry" />
        </mxCell>
        <mxCell id="SATKyw_8-wPn9Zzh8-83-22" value="None" style="text;strokeColor=default;fillColor=none;align=left;verticalAlign=top;spacingLeft=4;spacingRight=4;overflow=hidden;rotatable=0;points=[[0,0.5],[1,0.5]];portConstraint=eastwest;whiteSpace=wrap;fontFamily=手札体-简;html=1;swimlaneLine=0;shadow=1;fontSize=14;" vertex="1" parent="SATKyw_8-wPn9Zzh8-83-19">
          <mxGeometry y="78" width="130" height="26" as="geometry" />
        </mxCell>
        <mxCell id="SATKyw_8-wPn9Zzh8-83-23" value="Reminder Popular Dates" style="swimlane;fontStyle=0;childLayout=stackLayout;horizontal=1;startSize=26;fillColor=none;horizontalStack=0;resizeParent=1;resizeParentMax=0;resizeLast=0;collapsible=1;marginBottom=0;hachureGap=4;fontFamily=手札体-简;html=1;flipH=0;strokeColor=default;swimlaneLine=0;shadow=1;fontSize=14;" vertex="1" parent="SATKyw_8-wPn9Zzh8-83-1">
          <mxGeometry x="430" y="240" width="210" height="104" as="geometry" />
        </mxCell>
        <mxCell id="SATKyw_8-wPn9Zzh8-83-24" value="1， 5， 15" style="text;strokeColor=default;fillColor=none;align=left;verticalAlign=top;spacingLeft=4;spacingRight=4;overflow=hidden;rotatable=0;points=[[0,0.5],[1,0.5]];portConstraint=eastwest;whiteSpace=wrap;fontFamily=手札体-简;html=1;swimlaneLine=0;shadow=1;fontSize=14;" vertex="1" parent="SATKyw_8-wPn9Zzh8-83-23">
          <mxGeometry y="26" width="210" height="26" as="geometry" />
        </mxCell>
        <mxCell id="SATKyw_8-wPn9Zzh8-83-25" value="28, 29, 30" style="text;strokeColor=default;fillColor=none;align=left;verticalAlign=top;spacingLeft=4;spacingRight=4;overflow=hidden;rotatable=0;points=[[0,0.5],[1,0.5]];portConstraint=eastwest;whiteSpace=wrap;fontFamily=手札体-简;html=1;swimlaneLine=0;shadow=1;fontSize=14;" vertex="1" parent="SATKyw_8-wPn9Zzh8-83-23">
          <mxGeometry y="52" width="210" height="26" as="geometry" />
        </mxCell>
        <mxCell id="SATKyw_8-wPn9Zzh8-83-26" value="1, 2, 3" style="text;strokeColor=default;fillColor=none;align=left;verticalAlign=top;spacingLeft=4;spacingRight=4;overflow=hidden;rotatable=0;points=[[0,0.5],[1,0.5]];portConstraint=eastwest;whiteSpace=wrap;fontFamily=手札体-简;html=1;swimlaneLine=0;shadow=1;fontSize=14;" vertex="1" parent="SATKyw_8-wPn9Zzh8-83-23">
          <mxGeometry y="78" width="210" height="26" as="geometry" />
        </mxCell>
        <mxCell id="SATKyw_8-wPn9Zzh8-83-27" value="Operation" style="swimlane;fontStyle=0;childLayout=stackLayout;horizontal=1;startSize=26;fillColor=none;horizontalStack=0;resizeParent=1;resizeParentMax=0;resizeLast=0;collapsible=1;marginBottom=0;hachureGap=4;fontFamily=Architects Daughter;fontSource=https%3A%2F%2Ffonts.googleapis.com%2Fcss%3Ffamily%3DArchitects%2BDaughter;html=1;flipH=0;strokeColor=default;swimlaneLine=0;shadow=1;movable=0;resizable=0;rotatable=0;deletable=0;editable=0;locked=1;connectable=0;" vertex="1" parent="SATKyw_8-wPn9Zzh8-83-1">
          <mxGeometry x="640" y="240" width="170" height="104" as="geometry" />
        </mxCell>
        <mxCell id="SATKyw_8-wPn9Zzh8-83-28" value="" style="text;strokeColor=default;fillColor=none;align=left;verticalAlign=top;spacingLeft=4;spacingRight=4;overflow=hidden;rotatable=0;points=[[0,0.5],[1,0.5]];portConstraint=eastwest;whiteSpace=wrap;fontFamily=Architects Daughter;fontSource=https%3A%2F%2Ffonts.googleapis.com%2Fcss%3Ffamily%3DArchitects%2BDaughter;html=1;swimlaneLine=0;shadow=1;" vertex="1" parent="SATKyw_8-wPn9Zzh8-83-27">
          <mxGeometry y="26" width="170" height="26" as="geometry" />
        </mxCell>
        <mxCell id="SATKyw_8-wPn9Zzh8-83-29" value="" style="text;strokeColor=default;fillColor=none;align=left;verticalAlign=top;spacingLeft=4;spacingRight=4;overflow=hidden;rotatable=0;points=[[0,0.5],[1,0.5]];portConstraint=eastwest;whiteSpace=wrap;fontFamily=Architects Daughter;fontSource=https%3A%2F%2Ffonts.googleapis.com%2Fcss%3Ffamily%3DArchitects%2BDaughter;html=1;swimlaneLine=0;shadow=1;" vertex="1" parent="SATKyw_8-wPn9Zzh8-83-27">
          <mxGeometry y="52" width="170" height="26" as="geometry" />
        </mxCell>
        <mxCell id="SATKyw_8-wPn9Zzh8-83-30" value="" style="text;strokeColor=default;fillColor=none;align=left;verticalAlign=top;spacingLeft=4;spacingRight=4;overflow=hidden;rotatable=0;points=[[0,0.5],[1,0.5]];portConstraint=eastwest;whiteSpace=wrap;fontFamily=Architects Daughter;fontSource=https%3A%2F%2Ffonts.googleapis.com%2Fcss%3Ffamily%3DArchitects%2BDaughter;html=1;swimlaneLine=0;shadow=1;" vertex="1" parent="SATKyw_8-wPn9Zzh8-83-27">
          <mxGeometry y="78" width="170" height="26" as="geometry" />
        </mxCell>
        <mxCell id="SATKyw_8-wPn9Zzh8-83-31" value="&lt;font style=&quot;font-size: 14px;&quot;&gt;Edit&lt;/font&gt;" style="rounded=1;html=1;shadow=0;dashed=0;whiteSpace=wrap;fontSize=10;fillColor=#E6E6E6;align=center;strokeColor=#E6E6E6;fontColor=#333333;sketch=1;hachureGap=4;jiggle=2;curveFitting=1;fontFamily=手札体-简;arcSize=50;" vertex="1" parent="SATKyw_8-wPn9Zzh8-83-1">
          <mxGeometry x="660" y="270" width="50" height="20" as="geometry" />
        </mxCell>
        <mxCell id="SATKyw_8-wPn9Zzh8-83-32" value="&lt;font style=&quot;font-size: 14px;&quot;&gt;Delete&lt;/font&gt;" style="rounded=1;html=1;shadow=0;dashed=0;whiteSpace=wrap;fontSize=10;fillColor=#E6E6E6;align=center;strokeColor=#E6E6E6;fontColor=#333333;sketch=1;hachureGap=4;jiggle=2;curveFitting=1;fontFamily=手札体-简;arcSize=50;" vertex="1" parent="SATKyw_8-wPn9Zzh8-83-1">
          <mxGeometry x="720" y="270" width="60" height="20" as="geometry" />
        </mxCell>
        <mxCell id="SATKyw_8-wPn9Zzh8-83-33" value="&lt;font style=&quot;font-size: 14px;&quot;&gt;Edit&lt;/font&gt;" style="rounded=1;html=1;shadow=0;dashed=0;whiteSpace=wrap;fontSize=10;fillColor=#E6E6E6;align=center;strokeColor=#E6E6E6;fontColor=#333333;sketch=1;hachureGap=4;jiggle=2;curveFitting=1;fontFamily=手札体-简;arcSize=50;" vertex="1" parent="SATKyw_8-wPn9Zzh8-83-1">
          <mxGeometry x="660" y="296" width="50" height="20" as="geometry" />
        </mxCell>
        <mxCell id="SATKyw_8-wPn9Zzh8-83-34" value="&lt;font style=&quot;font-size: 14px;&quot;&gt;Delete&lt;/font&gt;" style="rounded=1;html=1;shadow=0;dashed=0;whiteSpace=wrap;fontSize=10;fillColor=#E6E6E6;align=center;strokeColor=#E6E6E6;fontColor=#333333;sketch=1;hachureGap=4;jiggle=2;curveFitting=1;fontFamily=手札体-简;arcSize=50;" vertex="1" parent="SATKyw_8-wPn9Zzh8-83-1">
          <mxGeometry x="720" y="296" width="60" height="20" as="geometry" />
        </mxCell>
        <mxCell id="SATKyw_8-wPn9Zzh8-83-37" value="&lt;font style=&quot;font-size: 14px;&quot;&gt;Edit&lt;/font&gt;" style="rounded=1;html=1;shadow=0;dashed=0;whiteSpace=wrap;fontSize=10;fillColor=#E6E6E6;align=center;strokeColor=#E6E6E6;fontColor=#333333;sketch=1;hachureGap=4;jiggle=2;curveFitting=1;fontFamily=手札体-简;arcSize=50;" vertex="1" parent="SATKyw_8-wPn9Zzh8-83-1">
          <mxGeometry x="660" y="322" width="50" height="20" as="geometry" />
        </mxCell>
        <mxCell id="SATKyw_8-wPn9Zzh8-83-38" value="&lt;font style=&quot;font-size: 14px;&quot;&gt;Delete&lt;/font&gt;" style="rounded=1;html=1;shadow=0;dashed=0;whiteSpace=wrap;fontSize=10;fillColor=#E6E6E6;align=center;strokeColor=#E6E6E6;fontColor=#333333;sketch=1;hachureGap=4;jiggle=2;curveFitting=1;fontFamily=手札体-简;arcSize=50;" vertex="1" parent="SATKyw_8-wPn9Zzh8-83-1">
          <mxGeometry x="720" y="322" width="60" height="20" as="geometry" />
        </mxCell>
        <mxCell id="SATKyw_8-wPn9Zzh8-83-39" value="" style="strokeWidth=1;shadow=0;dashed=0;align=center;html=1;shape=mxgraph.mockup.containers.browserWindow;rSize=0;strokeColor=#666666;strokeColor2=#008cff;strokeColor3=#c4c4c4;mainText=,;recursiveResize=0;sketch=1;hachureGap=4;jiggle=2;curveFitting=1;fontFamily=手札体-简;" vertex="1" parent="1">
          <mxGeometry x="100" y="600" width="880" height="570" as="geometry" />
        </mxCell>
        <mxCell id="SATKyw_8-wPn9Zzh8-83-40" value="Page 1" style="strokeWidth=1;shadow=0;dashed=0;align=center;html=1;shape=mxgraph.mockup.containers.anchor;fontSize=17;fontColor=#666666;align=left;whiteSpace=wrap;sketch=1;hachureGap=4;jiggle=2;curveFitting=1;fontFamily=手札体-简;" vertex="1" parent="SATKyw_8-wPn9Zzh8-83-39">
          <mxGeometry x="60" y="12" width="110" height="26" as="geometry" />
        </mxCell>
        <mxCell id="SATKyw_8-wPn9Zzh8-83-41" value="dp-admin/reminder" style="strokeWidth=1;shadow=0;dashed=0;align=center;html=1;shape=mxgraph.mockup.containers.anchor;rSize=0;fontSize=17;fontColor=#666666;align=left;sketch=1;hachureGap=4;jiggle=2;curveFitting=1;fontFamily=手札体-简;" vertex="1" parent="SATKyw_8-wPn9Zzh8-83-39">
          <mxGeometry x="130" y="60" width="250" height="26" as="geometry" />
        </mxCell>
      </root>
    </mxGraphModel>
  </diagram>
</mxfile>
